<?xml version="1.0" encoding="utf-8"?>
<!-- Generator: Adobe Illustrator 22.1.0, SVG Export Plug-In . SVG Version: 6.00 Build 0)  -->
<svg version="1.1" id="圖層_1" xmlns="http://www.w3.org/2000/svg" xmlns:xlink="http://www.w3.org/1999/xlink" x="0px" y="0px"
	 viewBox="0 0 52 20" style="enable-background:new 0 0 52 20;" xml:space="preserve">
<style type="text/css">
	.st0{display:none;fill:#FFFFFF;}
	.st1{fill:#0A0A0A;stroke:#000000;stroke-width:0.25;stroke-miterlimit:10;}
	.st2{fill:#0C0C0C;stroke:#000000;stroke-width:0.25;stroke-miterlimit:10;}
</style>
<path class="st0" d="M4.6,9.4l1.7-0.2l0.2-0.4c0.5-1.2,1-2.1,1.4-2.7C8.5,5,9.2,4.2,10,3.7c1-0.7,2.2-1.1,3.5-1.1
	c0.6,0,0.8,0.1,0.8,0.4c0,0.1-0.2,0.6-0.5,1.4c-0.1,0.3-0.5,1.1-1,2.3c-0.4,1-0.7,1.6-0.7,1.8l1.5-0.2c0,0,0.1,0,0.1,0
	c0,0,0,0,0,0.1l-0.3,0.9c-0.1,0.2-0.1,0.2-0.3,0.3l-1.6,0.2l-0.1,0.3c-0.3,0.9-0.5,1.7-0.7,2.3c-0.1,0.6-0.2,1.1-0.2,1.4
	c0,0.6,0.2,0.9,0.6,0.9c0.3,0,0.8-0.1,1.3-0.4c0.7-0.4,1.5-1,2.3-1.9V14c-1.7,1.4-3.2,2.1-4.4,2.1c-0.5,0-0.8-0.2-1-0.5
	C9.1,15.2,9,14.7,9,14.2c0-0.5,0.1-1.1,0.2-1.7c0.1-0.6,0.4-1.4,0.7-2.5l-2.9,0.4c-0.4,0.9-0.8,1.7-1.2,2.6c-0.5,1-1.1,1.7-1.7,2.2
	c-0.8,0.6-1.7,1-2.7,1c-0.4,0-0.6-0.1-0.8-0.2c-0.1-0.1-0.2-0.4-0.2-0.8c0-0.3,0-0.5,0.1-0.5c0-0.1,0.1-0.1,0.3-0.1c0,0,0.2,0,0.4,0
	c0.2,0,0.4,0,0.6,0c0.7,0,1.4-0.3,1.9-0.8c0.6-0.6,1.2-1.7,1.9-3.3l-1.5,0.2c-0.1,0-0.1,0-0.1-0.1l0.2-0.7c0.1-0.2,0.1-0.3,0.1-0.4
	C4.3,9.5,4.4,9.5,4.6,9.4z M7.6,9.1l2.7-0.4c0.3-0.9,0.6-1.5,0.8-2c0.2-0.4,0.4-0.9,0.7-1.6c0.1-0.3,0.3-0.5,0.3-0.6
	c0.1-0.1,0.2-0.3,0.3-0.6c0,0,0-0.1-0.1-0.1c0,0-0.1-0.1-0.2-0.1c-0.2,0-0.5,0.1-0.8,0.3c-0.4,0.2-0.7,0.4-1,0.7
	C10,5.1,9.5,5.6,9.1,6.3C8.7,6.9,8.2,7.8,7.6,9.1z"/>
<path class="st0" d="M14.4,12.5l0.3-0.4c0.6-0.6,1-1.2,1.4-1.7c0.4-0.6,0.9-1.2,1.2-1.9c-0.1-0.1-0.2-0.2-0.2-0.3
	c0-0.4,0.1-0.8,0.3-1.2c0.2-0.4,0.5-0.5,0.9-0.5l0.9,0c0.2,0.1,0.4,0.2,0.4,0.4c0,0.2-0.1,0.5-0.4,0.9c-0.2,0.4-0.5,0.7-0.7,1
	c0.4,0.5,0.7,0.9,0.8,1.3c0.2,0.3,0.2,0.7,0.2,1.1c0,0.6-0.1,1.2-0.3,1.9c-0.2,0.7-0.5,1.3-0.8,1.8c0.6,0,1.4-0.4,2.5-1.3
	c0.4-0.4,0.9-0.7,1.3-1.1V14L22,14.3c-0.8,0.6-1.5,1-2,1.3c-0.5,0.3-1,0.4-1.4,0.4c-0.3,0-0.6-0.1-1.1-0.3c-0.2,0.1-0.5,0.2-0.7,0.3
	c-0.3,0.1-0.6,0.1-1,0.1c-0.3,0-0.5,0-0.6-0.1c-0.1-0.1-0.2-0.3-0.2-0.5c0-0.4,0-0.7,0.1-0.9c0.1-0.2,0.2-0.3,0.4-0.3
	c0.2,0,0.4,0,0.7,0.1c0.3,0.1,0.5,0.1,0.6,0.1c0.2,0,0.5-0.4,0.8-1.3c0.3-0.8,0.5-1.5,0.5-2c0-0.2,0-0.4-0.1-0.6
	c0-0.2-0.1-0.4-0.3-0.6c-0.7,1-1.2,1.8-1.6,2.2c-0.4,0.6-1.1,1.2-1.9,2V12.5z"/>
<path class="st0" d="M32.4,12.4V14c-0.5,0.4-1,0.5-1.6,0.5c-0.4,0-0.7-0.1-1-0.2c-0.3-0.1-0.6-0.4-0.9-0.7c-0.9,1.7-2.1,2.5-3.6,2.5
	c-0.8,0-1.4-0.2-1.8-0.7c-0.4-0.5-0.7-1.2-0.7-2.1c0-1.4,0.4-2.6,1.3-3.6c0.9-1,2-1.4,3.4-1.4l-0.1,1.1c-1,0.1-1.7,0.5-2.1,1.2
	c-0.5,0.6-0.7,1.5-0.7,2.5c0,1.2,0.4,1.8,1.2,1.8c0.5,0,0.9-0.3,1.4-0.8c0.5-0.5,0.7-1.2,0.9-1.9c-0.1-0.3-0.1-0.5-0.2-0.6
	c0-0.1,0-0.3,0-0.4c0-0.4,0-0.7,0.1-1.2C27.9,9.6,28,9.3,28.2,9h1.3c0.1,0.2,0.1,0.5,0.1,0.7c0,0.2,0,0.4,0,0.5
	c0,0.7-0.1,1.5-0.4,2.2c0.6,0.6,1.1,1,1.6,1C31.3,13.3,31.9,13,32.4,12.4z"/>
<path class="st0" d="M32.3,14.1v-1.6c0.7-0.7,1.2-1.2,1.5-1.6c0.6-0.7,1-1.3,1.3-1.9c-0.2-0.4-0.3-0.7-0.3-0.9c0-0.4,0-0.7,0.1-0.9
	c0.1-0.2,0.3-0.4,0.6-0.4c0.5,0,0.9,0,1,0.1c0.1,0.1,0.2,0.3,0.2,0.5c0,0.3-0.1,0.7-0.3,1.2c0.7,0.2,1.1,0.4,1.3,0.6
	c0.6,0.3,0.9,0.9,0.9,1.7c0,0.4-0.1,0.8-0.3,1.4c-0.4,1.2-0.6,1.9-0.6,2c0,0.2,0.1,0.3,0.3,0.3c0.6,0,1.6-0.8,3.1-2.3V14
	c-1.7,1.4-3,2.1-3.9,2.1c-0.4,0-0.7-0.1-0.9-0.4c-0.2-0.3-0.3-0.7-0.3-1.1s0.2-1.1,0.5-1.9c0.3-0.8,0.5-1.4,0.5-1.7
	c0-0.6-0.3-1-1-1.3c-0.4,0.9-1.2,1.8-2.2,2.8C33.6,13,33.1,13.5,32.3,14.1z"/>
<path class="st0" d="M42.8,8.3h1.7c-0.2,0.5-0.3,0.9-0.5,1.3c-0.1,0.4-0.2,0.8-0.4,1.2c1-0.9,1.8-1.6,2.3-2c0.6-0.4,1.1-0.6,1.5-0.6
	c0.3,0,0.6,0.2,0.9,0.5c0.2,0.3,0.4,0.8,0.4,1.3c0,0.4-0.2,1.3-0.7,2.6c-0.2,0.6-0.3,1.1-0.3,1.6c0,0.4,0.1,0.6,0.3,0.6
	c0.2,0,0.5-0.2,1.1-0.6c0.7-0.5,1.4-1.1,2-1.8V14l-0.4,0.4c-0.8,0.7-1.4,1.1-1.9,1.4c-0.5,0.3-0.9,0.4-1.4,0.4c-0.4,0-0.7-0.2-1-0.5
	c-0.2-0.3-0.4-0.8-0.4-1.3c0-0.4,0.1-0.9,0.3-1.5c0.4-1.3,0.6-2.1,0.6-2.4c0-0.4-0.1-0.6-0.3-0.6c-0.3,0-1.4,0.9-3.2,2.6l-0.2,0.2
	c0,0.2,0,0.4,0,0.6c0,0.2,0,0.3,0,0.4c0,0.2,0,0.3,0,0.4l0,1.5l0,0.4h-1.6c-0.1-0.4-0.1-0.8-0.1-1.1l0-1.7
	C41.6,12.1,42,10.4,42.8,8.3z"/>
<path class="st1" d="M27.3,8.3c0.8-0.1,0.8-0.9,0.8-1.4c0-0.3,0-1-0.6-0.9c-0.9,0.1-0.7,0.9-0.9,1.4C26.7,7.8,26.7,8.3,27.3,8.3z"/>
<path class="st2" d="M49.5,12.5c-0.3-0.2-0.4,0-0.6,0.2c-0.2,0.2-2.7,4.1-3.7,4.3c-0.1-0.6,0.1-1.1,0.2-1.7c0.2-1.7,0.8-3.3,0.8-5
	l0,0h0c0-0.2,0-0.4-0.3-0.4c-0.3,0-0.3,0.2-0.3,0.4c-0.4,0.9-0.9,0.2-1.1-0.1c-0.9-0.8-2-0.8-2.8,0c-1.6,1.8-2.6,4-4,5.9
	c-0.4,0.5-0.8,1-1.4,0.8c-0.6-0.2-0.2-0.8-0.1-1.3c0-0.1,0.1-0.1,0.1-0.2c0.1-1.4,0.8-2.7,0.4-4.1c-0.5-1.8-2.5-2.3-3.7-1.1
	c-0.3,0.3-0.8,0.6-1.2,0.9c0-0.3,0.1-0.7,0.1-1.1c0-0.2-0.2-0.3-0.4-0.4c-0.2,0-0.4,0-0.5,0.2c-0.5,1.5-1.6,2.7-2.4,4
	c-0.7,1.1-1.3,2.2-2.4,3.3c0-1.5,0.4-2.7,0.6-4c0.1-0.9,0.4-1.8,0.6-2.7c0.1-0.3,0.1-0.7-0.4-0.8c-0.4-0.1-0.4,0.3-0.6,0.6
	c-0.1,0.3-0.4,0.6-0.6,0.9c-1.1,1.7-2.3,3.5-3.4,5.2c-0.3,0.4-0.8,0.7-1.3,0.5c-0.5-0.2-0.2-0.6-0.1-1c0.5-2.6,1-5.1,1.5-7.7
	c0.3-1.7,0.7-3.4,1-5.1c0.1-0.3,0.1-0.6-0.3-0.8c-0.3-0.1-0.4,0.1-0.6,0.3c-2,3-3.9,5.9-5.9,8.8c-0.8,1.1-1.4,2.3-2.4,3.3
	c0.3-1.9,0.6-3.7,1-5.5c0.4-2,0.8-4.1,1.1-6.1c0.1-0.3,0.1-0.6-0.3-0.8c-0.4-0.1-0.5,0.2-0.6,0.5c-2.5,3.8-5.1,7.5-7.6,11.3
	c-0.9,1.4-1.6,3.1-4,2.9c-0.3,0-0.4,0.3-0.4,0.6c0,0.4,0.2,0.5,0.6,0.5c1.4,0.1,2.5-0.4,3.2-1.5c1.5-2.2,3-4.5,4.5-6.7
	c1-1.4,2-2.9,3-4.3c-0.1,1.7-0.4,3.3-0.7,4.9c-0.4,2.2-0.9,4.4-1.3,6.5c-0.1,0.3-0.2,0.7,0.2,0.9c0.3,0.2,0.5-0.1,0.7-0.3
	c1.7-2.6,3.5-5.2,5.2-7.8c1-1.4,2-2.9,3-4.3c-0.2,2.1-0.5,4.1-0.9,6c-0.3,1.6-0.6,3.2-0.9,4.8c-0.1,0.6,0.1,1.3,0.8,1.5
	c0.6,0.2,1.3,0.1,1.7-0.5c0.4-0.5,0.8-0.9,1.1-1.4c0.6-1,1.4-2,2.2-3.2c-0.2,1.5-0.5,2.7-0.6,3.9c0,0.5,0,1.1,0.7,1.3
	c0.6,0.1,0.9-0.2,1.3-0.6c1.1-1,1.9-2.6,2.5-3.4c0.2-0.2,0.2-0.4,0.5-0.6c0,0.4-0.1,0.8-0.2,1.1c-0.1,0.8-0.3,1.6-0.4,2.4
	c-0.1,0.4-0.3,0.9,0.2,1.1c0.7,0.2,0.5-0.4,0.6-0.8c0.5-1.9,0.9-3.9,2.3-5.5c0.7-0.8,1.5-1.3,2.5-0.8c0.9,0.5,0.7,1.4,0.6,2.2
	c-0.2,1.2-0.5,2.3-0.6,3.5c-0.1,0.6,0.1,1.2,0.8,1.4c0.6,0.2,1.2,0,1.8-0.5c0.7-0.6,1-1.5,1.6-2.1c0.1-0.2,0.2-0.3,0.4-0.7
	c0,0.6,0,0.9,0,1.2c0,0.4,0.1,0.8,0.4,1.1c0.7,1,2,1.4,2.7,0.7c0.3-0.3,0.8-0.6,1-1c0.1-0.2,0.2-0.3,0.4-0.6
	c0.2,0.4,0.2,0.8,0.1,1.1c0.1,0.4,0.1,0.8,0.6,0.8c0.5,0.1,0.8-0.1,1.2-0.5c1.1-1.1,1.5-2.1,2.4-3.2C49.2,13.5,49.8,12.7,49.5,12.5z
	 M44.8,12.8c-0.4,1.3-1,2.5-1.9,3.6c-0.3,0.4-0.8,0.6-1.3,0.6c-0.6-0.1-0.7-0.5-0.8-0.9c-0.5-1.9,0.4-3.4,1.4-4.9
	c0.2-0.3,0.6-0.4,1-0.3C44.2,10.8,45.2,11.8,44.8,12.8z"/>
</svg>
